<svg width="478" height="357" viewBox="0 0 478 357" fill="none" xmlns="http://www.w3.org/2000/svg">
<path opacity="0.2" d="M316.207 292.037C321.285 286.903 313.983 285.221 314.343 289.086C314.416 289.867 314.044 291.848 313.383 294.523C314.268 293.837 315.204 293.052 316.207 292.037ZM44.3179 237.014C44.3179 237.014 45.0991 228.37 47.1722 225.066C49.0146 222.126 64.2603 201.339 111.016 219.169C108.929 207.99 104.397 197.076 95.455 189.532C68.7382 166.991 15.4927 174.907 15.4927 174.907C15.4927 174.907 60.62 131.08 46.4921 98.8315C32.3643 66.5809 0 51.5682 0 51.5682C0 51.5682 69.3523 46.0964 92.6078 40.1047C115.863 34.1107 112.195 11.8332 112.195 11.8332C112.195 11.8332 123.224 19.4146 141.917 32.5441C160.607 45.6712 192.915 77.0623 199.647 81.1337C206.377 85.2052 207.88 84.2902 212.749 85.4109C217.618 86.5316 209.535 93.4961 208.393 98.2769C207.252 103.058 222.253 153.159 236.44 169.031C250.627 184.906 260.724 191.01 255.342 175.903C249.961 160.798 234.995 153.57 234.995 153.57C234.995 153.57 243.497 134.093 245.266 110.547C247.036 86.9983 222.333 77.529 222.333 77.529C222.333 77.529 243.365 64.7208 254.3 45.8053C265.234 26.8875 250.118 9.54093 250.118 9.54093C250.118 9.54093 278.186 21.046 294.5 17.2356C310.816 13.4275 312.736 0 312.736 0C312.736 0 317.758 11.2416 318.631 29.0942C319.506 46.9468 323.386 62.9692 325.247 65.92C327.111 68.8685 323.537 73.0901 320.532 74.9202C317.527 76.7503 309.329 116.469 308.131 137.624C306.933 158.783 310.298 160.816 316.821 171.145C323.341 181.469 338.1 194.953 340.173 191.648C342.117 188.55 344.745 177.849 356.386 164.578C352.906 164.181 349.948 164.072 346.449 165.357C338.006 168.456 316.099 163.414 316.099 163.414C316.099 163.414 340.582 165.396 354.602 156.581C356.08 155.652 357.642 154.912 359.252 154.316C355.866 154.633 352.289 155.1 348.729 155.795C333.916 158.691 325.89 149.277 325.89 149.277C325.89 149.277 348.369 151.929 354.379 148.272C360.386 144.611 374.629 144.105 404.05 141.737C404.779 141.577 405.473 141.42 406.12 141.27C416.996 138.731 422.074 133.596 433.675 138.786C445.276 143.978 447.346 140.674 461.59 140.17C475.833 139.666 477.847 152.738 477.847 152.738L455.523 160.206L478 162.859C478 162.859 477.431 165.248 472.924 167.993C468.416 170.739 460.542 171.448 447.803 171.037C435.334 170.635 432.503 176.086 417.434 183.512C416.523 188.979 419.048 194.678 419.048 194.678C419.048 194.678 412.949 191.59 410.311 186.255C409.015 186.585 407.779 186.807 406.591 186.946C408.137 191.244 410.245 193.91 410.245 193.91C410.245 193.91 406.572 192.256 402.257 187.128C394.786 186.89 389.329 184.178 383.47 187.748C383.47 187.748 374.248 199.493 372.328 212.918C370.405 226.346 382.31 251.78 345.531 266.007C344.59 266.372 343.623 266.705 342.651 267.033C340.91 273.212 334.589 295.709 333.608 299.824C332.464 304.605 324.956 309.178 327.029 305.874C329.099 302.569 330.812 295.399 329.309 296.314C327.808 297.229 326.666 302.008 320.657 305.668C314.649 309.328 312.786 306.38 318.795 302.72C324.803 299.059 323.871 297.583 322.367 298.498C320.866 299.413 314.287 305.465 313.355 303.988C312.423 302.514 313.924 301.599 319.002 296.462C324.08 291.328 321.075 293.158 321.075 293.158C321.075 293.158 316.275 296.079 312.508 297.858C309.418 309.088 303.286 327.033 300.707 330.074C297.135 334.295 298.634 333.38 299.928 338.72C301.222 344.06 296.505 353.061 293.502 354.891C290.495 356.721 295.213 347.721 293.709 348.636C292.208 349.551 288.062 356.162 280.188 356.871C272.317 357.58 272.887 355.189 278.325 353.92C283.765 352.649 281.901 349.701 280.398 350.616C278.896 351.531 268.59 351.679 267.658 350.202C266.726 348.728 278.534 347.665 281.541 345.835C284.544 344.005 279.678 342.884 276.67 344.714C273.668 346.545 264.863 345.777 263.931 344.303C262.999 342.827 266.936 342.473 272.374 341.202C277.814 339.934 280.457 334.238 285.535 329.103C290.61 323.967 289.109 324.882 290.82 317.711C292.53 310.541 296.582 277.433 296.582 277.433C296.582 277.433 285.137 282.362 279.127 286.022C273.117 289.682 265.397 300.513 254.881 306.918C244.365 313.321 234.837 304.827 223.961 307.364C213.083 309.904 197.546 305.067 181.441 302.62C165.334 300.173 163.261 303.48 151.244 310.798C139.225 318.118 123.118 315.671 130.631 311.096C138.142 306.523 155.237 294.066 155.237 294.066C155.237 294.066 159.384 287.457 171.401 280.137C183.418 272.819 190.362 270.633 190.362 270.633C190.362 270.633 174.038 264.597 143.081 249.647C123.012 255.244 109.618 264.655 109.618 264.655C109.618 264.655 112.908 250.837 112.524 234.336C61.8296 208.075 44.3179 237.014 44.3179 237.014Z" fill="#9E7B30"/>
</svg>
