<svg width="851" height="745" viewBox="0 0 851 745" fill="none" xmlns="http://www.w3.org/2000/svg">
<path opacity="0.2" d="M31.5902 500.728C31.5902 501.177 31.6699 501.606 31.726 502.041H31.5902V525.691H52.9978V502.041H52.862C52.921 501.606 52.9978 501.177 52.9978 500.728C52.9978 494.923 48.2062 490.218 42.2955 490.218C36.382 490.218 31.5902 494.923 31.5902 500.728ZM61.1493 502.041V525.691H82.5568V502.041H82.4211C82.4742 501.606 82.5568 501.177 82.5568 500.728C82.5568 494.923 77.7652 490.218 71.8516 490.218C65.941 490.218 61.1493 494.923 61.1493 500.728C61.1493 501.177 61.2261 501.606 61.2822 502.041H61.1493ZM123.544 502.041V525.691H144.952V502.041H144.819C144.872 501.606 144.952 501.177 144.952 500.728C144.952 494.923 140.16 490.218 134.247 490.218C128.339 490.218 123.544 494.923 123.544 500.728C123.544 501.177 123.624 501.606 123.677 502.041H123.544ZM153.1 502.041V525.691H174.508V502.041H174.372C174.431 501.606 174.508 501.177 174.508 500.728C174.508 494.923 169.716 490.218 163.806 490.218C157.892 490.218 153.1 494.923 153.1 500.728C153.1 501.177 153.183 501.606 153.236 502.041H153.1ZM218.814 699.849H251.653V651.711C251.653 645.266 249.604 638.977 245.787 633.729L235.235 619.221L224.68 633.729C220.866 638.977 218.814 645.266 218.814 651.711V699.849ZM277.929 699.849H310.768V651.711C310.768 645.266 308.716 638.977 304.899 633.729L294.347 619.221L283.796 633.729C279.981 638.977 277.929 645.266 277.929 651.711V699.849ZM323.906 377.338V338.828C323.906 333.668 322.675 328.64 320.381 324.442L314.054 312.836L310.768 318.855V332.186H304.937C304.48 334.34 304.199 336.564 304.199 338.828V377.338H323.906ZM333.758 377.338H353.459V338.828C353.459 333.668 352.228 328.64 349.94 324.442L343.61 312.836L337.278 324.442C334.99 328.64 333.758 333.668 333.758 338.828V377.338ZM337.041 699.849H369.881V651.711C369.881 645.266 367.832 638.977 364.014 633.729L353.459 619.221L342.908 633.729C339.093 638.977 337.041 645.266 337.041 651.711V699.849ZM415.037 406.064V471.769H433.643V406.064H433.527C433.575 405.684 433.643 405.313 433.643 404.919C433.643 399.874 429.48 395.786 424.34 395.786C419.203 395.786 415.037 399.874 415.037 404.919C415.037 405.313 415.105 405.684 415.155 406.064H415.037ZM427.023 732.101H503.215V620.421C503.215 605.461 498.456 590.874 489.602 578.703L465.121 545.044L440.64 578.703C431.786 590.874 427.023 605.461 427.023 620.421V732.101ZM513.56 406.064H513.442C513.492 405.684 513.56 405.313 513.56 404.919C513.56 399.874 509.394 395.786 504.257 395.786C499.12 395.786 494.954 399.874 494.954 404.919C494.954 405.313 495.025 405.684 495.072 406.064H494.954V471.769H513.56V406.064ZM528.407 138.678H528.242C528.31 138.145 528.407 137.62 528.407 137.066C528.407 129.943 522.526 124.167 515.272 124.167C508.016 124.167 502.134 129.943 502.134 137.066C502.134 137.62 502.232 138.145 502.3 138.678H502.134V167.706H528.407V138.678ZM536.072 116.104H536.016C536.036 115.924 536.072 115.75 536.072 115.565C536.072 113.19 534.108 111.265 531.69 111.265C529.273 111.265 527.312 113.19 527.312 115.565C527.312 115.75 527.345 115.924 527.368 116.104H527.312V125.779H536.072V116.104ZM503.23 116.104H503.174C503.197 115.924 503.23 115.75 503.23 115.565C503.23 113.19 501.269 111.265 498.851 111.265C496.433 111.265 494.473 113.19 494.473 115.565C494.473 115.75 494.503 115.924 494.526 116.104H494.473V125.779H503.23V116.104ZM489.782 298.861H489.646C489.702 298.426 489.782 297.997 489.782 297.545C489.782 291.74 484.99 287.035 479.076 287.035C473.166 287.035 468.374 291.74 468.374 297.545C468.374 297.997 468.454 298.426 468.51 298.861H468.374V322.511H489.782V298.861ZM468.315 406.064V471.769H486.921V406.064H486.806C486.853 405.684 486.921 405.313 486.921 404.919C486.921 399.874 482.755 395.786 477.618 395.786C472.481 395.786 468.315 399.874 468.315 404.919C468.315 405.313 468.386 405.684 468.433 406.064H468.315ZM460.282 406.064H460.167C460.214 405.684 460.282 405.313 460.282 404.919C460.282 399.874 456.116 395.786 450.979 395.786C445.842 395.786 441.676 399.874 441.676 404.919C441.676 405.313 441.747 405.684 441.794 406.064H441.676V471.769H460.282V406.064ZM460.226 298.861H460.09C460.146 298.426 460.226 297.997 460.226 297.545C460.226 291.74 455.434 287.035 449.52 287.035C443.61 287.035 438.818 291.74 438.818 297.545C438.818 297.997 438.895 298.426 438.954 298.861H438.818V322.511H460.226V298.861ZM541.545 269.21L543.94 265.481H541.545V269.21ZM566.927 699.849H599.769V651.711C599.769 645.266 597.717 638.977 593.9 633.729L583.348 619.221L572.796 633.729C568.979 638.977 566.927 645.266 566.927 651.711V699.849ZM640.819 699.849H673.661V651.711C673.661 645.266 671.609 638.977 667.791 633.729L657.24 619.221L646.688 633.729C642.87 638.977 640.819 645.266 640.819 651.711V699.849ZM714.71 599.868H747.552V551.733C747.552 545.285 745.5 538.996 741.683 533.751L731.131 519.243L720.58 533.751C716.762 538.996 714.71 545.285 714.71 551.733V599.868ZM714.71 699.849H747.552V651.711C747.552 645.266 745.5 638.977 741.683 633.729L731.131 619.221L720.58 633.729C716.762 638.977 714.71 645.266 714.71 651.711V699.849ZM750.835 448.531C750.835 442.08 748.783 435.794 744.966 430.546L734.414 416.038L723.863 430.546C720.045 435.794 717.996 442.08 717.996 448.531V496.669H725.658V480.54H738.796V496.669H747.552V480.54H750.835V448.531ZM9.32947 435.284L9.36781 424.591L0 424.559L0.0177389 419.523L39.1365 367.66L77.8684 419.801L77.8508 424.835L68.48 424.803L68.4416 435.391H88.2697V416.038H78.9018V406.931L117.829 312.836L156.756 406.931V416.038H147.385V435.391H155.415L179.403 396.688V385.508H228.666V332.186H218.814V303.161H215.531V299.937H217.993V270.909H213.069V261.233L263.97 161.255L314.872 261.233V270.909H309.948V277.36H350.95L356.745 258.009L363.586 280.853V283.541H362.219V293.486H366.598V277.36H363.311V270.909L379.735 216.082L396.154 270.909V277.36H396.927L402.723 258.009V151.58H396.154V145.129H399.44V129.003H390.68V99.7082H389.313V97.0206L396.154 74.1767L402.997 97.0206V99.7082H401.627V109.653H406.006V93.5269H402.723V87.0788L419.144 32.2493L435.565 87.0788V93.5269H432.279V109.653H436.657V99.7082H435.29V97.0206L442.131 74.1767L448.974 97.0206V99.7082H447.604V129.003H438.848V145.129H442.131V151.58H435.565V195.763L465.121 129.003L488.999 170.69V106.429L482.43 77.4036H500.023V60.3091H493.924L515.272 0L536.618 60.3091H530.518V77.4036H537.371V41.9244H534.088L545.581 0L557.075 41.9244H553.789V172.543H554.681L541.545 202.603V263.437H543.94L552.147 222.533L560.358 263.437H563.644V265.481H560.358L576.097 293.486H609.621V283.811H606.335V280.584H609.621V238.656H606.335V235.432H609.621L617.828 170.931L626.042 235.432H629.325V238.656H626.042V280.584H629.325V283.811H626.042V293.486H652.315V303.161L695.136 349.22C695.31 346.979 695.653 344.833 696.178 342.954L698.289 335.41L700.4 342.954C701.165 345.683 701.575 348.953 701.575 352.307V356.143L708.141 363.206V352.307C708.141 348.953 708.552 345.683 709.316 342.954L711.427 335.41L713.538 342.954C714.3 345.683 714.71 348.953 714.71 352.307V370.275L721.279 377.338V355.532C721.279 352.18 721.69 348.909 722.451 346.178L724.562 338.637L726.673 346.178C727.435 348.909 727.848 352.18 727.848 355.532V377.338H769.719L783.677 349.924V327.347H786.96V311.224H790.243V327.347H793.529V340.249H805.023V327.347H808.306V311.224H811.592V327.347H814.875V349.924L851 420.877L844.431 430.552V743.385H763.97V745H8.6327V435.391H38.9388L9.32947 435.284Z" fill="#9E7B30"/>
</svg>
