<svg width="33" height="32" viewBox="0 0 33 32" fill="none" xmlns="http://www.w3.org/2000/svg">
<path d="M9.5 19V4C9.5 3.73478 9.60536 3.48043 9.79289 3.29289C9.98043 3.10536 10.2348 3 10.5 3H22.5C22.7652 3 23.0196 3.10536 23.2071 3.29289C23.3946 3.48043 23.5 3.73478 23.5 4V24C23.5 24.2652 23.3946 24.5196 23.2071 24.7071C23.0196 24.8946 22.7652 25 22.5 25H11.5M16.5 6V7M9.5 6H7.368C7.12706 6.00004 6.89424 6.08706 6.71235 6.24507C6.53046 6.40307 6.41173 6.62144 6.378 6.86L4.51 19.93L4.5 20.07V27.464C4.50009 27.6287 4.54084 27.7908 4.61865 27.9359C4.69645 28.0811 4.8089 28.2048 4.946 28.296L7.248 29.832C7.41206 29.9414 7.60481 29.9998 7.802 30H13.882C14.0676 30 14.2495 29.9484 14.4073 29.8509C14.5652 29.7534 14.6929 29.6139 14.776 29.448L16.428 26.146C16.4757 26.0499 16.5385 25.9621 16.614 25.886L17.5 25M23.5 9H24.72C24.9431 9.00006 25.1597 9.0747 25.3355 9.21205C25.5112 9.3494 25.636 9.54157 25.69 9.758L26.19 11.758C26.2268 11.9054 26.2295 12.0592 26.1979 12.2078C26.1663 12.3564 26.1013 12.4958 26.0078 12.6155C25.9143 12.7352 25.7948 12.8321 25.6583 12.8987C25.5218 12.9653 25.3719 13 25.22 13H24.5C24.2348 13 23.9804 13.1054 23.7929 13.2929C23.6054 13.4804 23.5 13.7348 23.5 14V15C23.5 15.2652 23.6054 15.5196 23.7929 15.7071C23.9804 15.8946 24.2348 16 24.5 16H25.5C25.7652 16 26.0196 16.1054 26.2071 16.2929C26.3946 16.4804 26.5 16.7348 26.5 17V18C26.5 18.2652 26.3946 18.5196 26.2071 18.7071C26.0196 18.8946 25.7652 19 25.5 19H23.5M8.5 20L12.792 15.708C12.8849 15.6149 12.9952 15.541 13.1167 15.4906C13.2382 15.4402 13.3685 15.4142 13.5 15.4142C13.6315 15.4142 13.7618 15.4402 13.8833 15.4906C14.0048 15.541 14.1151 15.6149 14.208 15.708L15.888 17.388C16.0578 17.5583 16.1605 17.784 16.1774 18.0239C16.1943 18.2637 16.1242 18.5016 15.98 18.694L10.7 25.734C10.5702 25.9071 10.5 26.1176 10.5 26.334V29M12.5 18L13.5 19M18.5 10C18.5 9.46957 18.2893 8.96086 17.9142 8.58579C17.5391 8.21071 17.0304 8 16.5 8C15.9696 8 15.4609 8.21071 15.0858 8.58579C14.7107 8.96086 14.5 9.46957 14.5 10M12.5 11H20.5" stroke="white" stroke-width="2"/>
</svg>
