<svg width="33" height="32" viewBox="0 0 33 32" fill="none" xmlns="http://www.w3.org/2000/svg">
<path d="M24.4997 13.3333H26.4997C27.3837 13.3333 28.2316 13.6845 28.8567 14.3096C29.4818 14.9348 29.833 15.7826 29.833 16.6667C29.833 17.5507 29.4818 18.3986 28.8567 19.0237C28.2316 19.6488 27.3837 20 26.4997 20H24.4997M24.4997 13.3333C24.4997 12.6267 24.0197 12 23.269 12H7.06367C6.90206 12 6.74203 12.0318 6.59272 12.0937C6.44341 12.1555 6.30774 12.2462 6.19346 12.3605C6.07918 12.4747 5.98853 12.6104 5.92669 12.7597C5.86484 12.909 5.83301 13.0691 5.83301 13.2307V22.6667C5.83301 24.0812 6.39491 25.4377 7.3951 26.4379C8.3953 27.4381 9.75185 28 11.1663 28H19.1663C20.5808 28 21.9374 27.4381 22.9376 26.4379C23.9378 25.4377 24.4997 24.0812 24.4997 22.6667V20M24.4997 13.3333V20M21.833 4L19.1663 8M17.833 4L15.1663 8M13.833 4L11.1663 8" stroke="white" stroke-width="2.5" stroke-linecap="round" stroke-linejoin="round"/>
</svg>
