<svg width="33" height="32" viewBox="0 0 33 32" fill="none" xmlns="http://www.w3.org/2000/svg">
<path d="M11.833 19.9998H21.1663M11.833 23.9998H16.4997M13.1663 11.3332H19.833M16.4997 14.6665V7.99984M25.833 2.6665H7.16634C6.81272 2.6665 6.47358 2.80698 6.22353 3.05703C5.97348 3.30708 5.83301 3.64622 5.83301 3.99984V27.9998C5.83301 28.3535 5.97348 28.6926 6.22353 28.9426C6.47358 29.1927 6.81272 29.3332 7.16634 29.3332H25.833C26.1866 29.3332 26.5258 29.1927 26.7758 28.9426C27.0259 28.6926 27.1663 28.3535 27.1663 27.9998V3.99984C27.1663 3.64622 27.0259 3.30708 26.7758 3.05703C26.5258 2.80698 26.1866 2.6665 25.833 2.6665Z" stroke="white" stroke-width="2.66667" stroke-linecap="round" stroke-linejoin="round"/>
</svg>
