<svg width="33" height="32" viewBox="0 0 33 32" fill="none" xmlns="http://www.w3.org/2000/svg">
<path fill-rule="evenodd" clip-rule="evenodd" d="M11.2684 9.67991L11.3951 9.79058L22.7097 21.1039C22.858 21.2521 22.9693 21.4331 23.0345 21.6323C23.0998 21.8315 23.1171 22.0433 23.0852 22.2504C23.0532 22.4576 22.9729 22.6543 22.8506 22.8246C22.7284 22.9949 22.5678 23.134 22.3817 23.2306L22.2271 23.2972L8.3804 28.3999C5.77773 29.3599 3.24307 26.9132 4.03373 24.3146L4.1004 24.1199L9.20173 10.2732C9.26918 10.0898 9.37611 9.92347 9.51498 9.78596C9.65384 9.64845 9.82124 9.54315 10.0053 9.47751C10.1894 9.41187 10.3856 9.38749 10.5802 9.40611C10.7747 9.42473 10.9628 9.48588 11.1311 9.58525L11.2684 9.67991ZM10.9831 13.1492L6.60307 25.0426C6.56235 25.1532 6.5517 25.2727 6.57221 25.3888C6.59273 25.5049 6.64367 25.6135 6.71985 25.7035C6.79602 25.7935 6.8947 25.8617 7.00582 25.9011C7.11695 25.9405 7.23654 25.9498 7.3524 25.9279L7.45907 25.8972L19.3497 21.5159L10.9831 13.1492ZM23.3097 15.4719C24.5244 15.5359 26.1897 15.7919 27.6377 16.6612C27.9313 16.8353 28.1469 17.1152 28.2403 17.4435C28.3336 17.7717 28.2975 18.1233 28.1395 18.4257C27.9814 18.7282 27.7134 18.9585 27.3906 19.0693C27.0678 19.1801 26.7149 19.1629 26.4044 19.0212L26.2657 18.9479C25.3564 18.4012 24.1937 18.1879 23.1697 18.1346C22.7478 18.1113 22.3248 18.113 21.9031 18.1399L21.4817 18.1812C21.1339 18.2261 20.7824 18.1322 20.5034 17.9197C20.2244 17.7073 20.0403 17.3934 19.991 17.0462C19.9417 16.699 20.0312 16.3463 20.2401 16.0646C20.449 15.783 20.7605 15.5949 21.1071 15.5412C21.8373 15.447 22.5749 15.4234 23.3097 15.4706M26.0097 11.7559C26.3495 11.7566 26.6761 11.887 26.923 12.1204C27.1698 12.3538 27.3183 12.6726 27.338 13.0118C27.3578 13.3509 27.2473 13.6848 27.0292 13.9453C26.8111 14.2057 26.5017 14.3731 26.1644 14.4132L26.0097 14.4226H25.0657C24.726 14.4219 24.3994 14.2915 24.1525 14.0581C23.9056 13.8247 23.7572 13.5059 23.7374 13.1667C23.7177 12.8276 23.8282 12.4937 24.0463 12.2332C24.2644 11.9727 24.5737 11.8054 24.9111 11.7652L25.0657 11.7559H26.0097ZM21.7671 10.7332C21.9966 10.9628 22.1345 11.2683 22.1549 11.5923C22.1753 11.9164 22.0767 12.2367 21.8777 12.4932L21.7671 12.6186L20.3537 14.0332C20.1143 14.2749 19.7916 14.416 19.4517 14.4275C19.1117 14.439 18.7802 14.3202 18.525 14.0953C18.2697 13.8704 18.1101 13.5565 18.0788 13.2177C18.0475 12.879 18.1468 12.5411 18.3564 12.2732L18.4671 12.1479L19.8804 10.7346C20.0042 10.6106 20.1513 10.5123 20.3131 10.4452C20.475 10.3781 20.6485 10.3435 20.8237 10.3435C20.999 10.3435 21.1725 10.3781 21.3343 10.4452C21.4962 10.5123 21.6432 10.6093 21.7671 10.7332ZM18.3177 3.71325C18.9151 5.50791 18.5951 7.47325 18.2217 8.84658C17.9983 9.70306 17.6901 10.5352 17.3017 11.3306C17.1438 11.6471 16.8667 11.8879 16.5312 12C16.1958 12.1122 15.8296 12.0865 15.5131 11.9286C15.1966 11.7707 14.9558 11.4935 14.8436 11.1581C14.7315 10.8227 14.7572 10.4564 14.9151 10.1399C15.2253 9.50109 15.471 8.83289 15.6484 8.14525C15.9511 7.03591 16.1031 5.83191 15.8697 4.84525L15.7884 4.55725C15.7303 4.3905 15.7059 4.21387 15.7166 4.03761C15.7273 3.86135 15.7729 3.68898 15.8508 3.5305C15.9287 3.37201 16.0372 3.23057 16.1702 3.11439C16.3032 2.99821 16.4579 2.90961 16.6254 2.85371C16.7929 2.79782 16.9699 2.77575 17.146 2.7888C17.3221 2.80185 17.4938 2.84974 17.6513 2.9297C17.8087 3.00967 17.9487 3.12011 18.0631 3.25462C18.1775 3.38912 18.2641 3.54502 18.3177 3.71325ZM25.5377 6.96391C25.7877 7.21395 25.9281 7.55303 25.9281 7.90658C25.9281 8.26013 25.7877 8.59921 25.5377 8.84925L24.5951 9.79191C24.4721 9.91926 24.3249 10.0208 24.1623 10.0907C23.9996 10.1606 23.8246 10.1974 23.6476 10.1989C23.4706 10.2005 23.295 10.1667 23.1311 10.0997C22.9673 10.0326 22.8184 9.93363 22.6932 9.80844C22.568 9.68325 22.469 9.53438 22.402 9.37052C22.3349 9.20666 22.3012 9.03108 22.3027 8.85404C22.3043 8.677 22.3411 8.50204 22.4109 8.33937C22.4808 8.1767 22.5824 8.02957 22.7097 7.90658L23.6524 6.96391C23.9024 6.71395 24.2415 6.57353 24.5951 6.57353C24.9486 6.57353 25.2877 6.71395 25.5377 6.96391Z" fill="white"/>
</svg>
