<svg width="33" height="32" viewBox="0 0 33 32" fill="none" xmlns="http://www.w3.org/2000/svg">
<path d="M7.16699 6.66667C7.16699 5.95942 7.44794 5.28115 7.94804 4.78105C8.44814 4.28095 9.12641 4 9.83366 4H23.167C23.8742 4 24.5525 4.28095 25.0526 4.78105C25.5527 5.28115 25.8337 5.95942 25.8337 6.66667V9.33333C25.8337 10.0406 25.5527 10.7189 25.0526 11.219C24.5525 11.719 23.8742 12 23.167 12H9.83366C9.12641 12 8.44814 11.719 7.94804 11.219C7.44794 10.7189 7.16699 10.0406 7.16699 9.33333V6.66667Z" stroke="white" stroke-width="2.5" stroke-linecap="round" stroke-linejoin="round"/>
<path d="M25.834 8H27.1673C27.8746 8 28.5528 8.28095 29.0529 8.78105C29.553 9.28115 29.834 9.95942 29.834 10.6667C29.834 12.4348 29.1316 14.1305 27.8814 15.3807C26.6311 16.631 24.9354 17.3333 23.1673 17.3333H16.5007V20M13.834 21.3333C13.834 20.9797 13.9745 20.6406 14.2245 20.3905C14.4746 20.1405 14.8137 20 15.1673 20H17.834C18.1876 20 18.5267 20.1405 18.7768 20.3905C19.0268 20.6406 19.1673 20.9797 19.1673 21.3333V26.6667C19.1673 27.0203 19.0268 27.3594 18.7768 27.6095C18.5267 27.8595 18.1876 28 17.834 28H15.1673C14.8137 28 14.4746 27.8595 14.2245 27.6095C13.9745 27.3594 13.834 27.0203 13.834 26.6667V21.3333Z" stroke="white" stroke-width="2.5" stroke-linecap="round" stroke-linejoin="round"/>
</svg>
