<svg width="33" height="32" viewBox="0 0 33 32" fill="none" xmlns="http://www.w3.org/2000/svg">
<mask id="path-1-outside-1_16_474" maskUnits="userSpaceOnUse" x="1.5" y="3.00391" width="30" height="26" fill="black">
<rect fill="white" x="1.5" y="3.00391" width="30" height="26"/>
<path d="M12.504 7.99991C12.504 6.9401 12.925 5.9237 13.6744 5.17431C14.4238 4.42491 15.4402 4.00391 16.5 4.00391C17.5598 4.00391 18.5762 4.42491 19.3256 5.17431C20.075 5.9237 20.496 6.9401 20.496 7.99991C20.496 9.05971 20.075 10.0761 19.3256 10.8255C18.5762 11.5749 17.5598 11.9959 16.5 11.9959C15.4402 11.9959 14.4238 11.5749 13.6744 10.8255C12.925 10.0761 12.504 9.05971 12.504 7.99991ZM16.5 6.00391C16.2379 6.00391 15.9783 6.05553 15.7362 6.15584C15.494 6.25615 15.274 6.40318 15.0886 6.58852C14.9033 6.77387 14.7562 6.9939 14.6559 7.23607C14.5556 7.47824 14.504 7.73779 14.504 7.99991C14.504 8.26202 14.5556 8.52158 14.6559 8.76374C14.7562 9.00591 14.9033 9.22595 15.0886 9.41129C15.274 9.59664 15.494 9.74366 15.7362 9.84397C15.9783 9.94428 16.2379 9.99591 16.5 9.99591C17.0294 9.99591 17.5371 9.78561 17.9114 9.41129C18.2857 9.03697 18.496 8.52928 18.496 7.99991C18.496 7.47053 18.2857 6.96284 17.9114 6.58852C17.5371 6.2142 17.0294 6.00391 16.5 6.00391ZM22.5 8.99991C22.5 8.60594 22.5776 8.21583 22.7284 7.85186C22.8791 7.48788 23.1001 7.15716 23.3787 6.87859C23.6573 6.60001 23.988 6.37903 24.3519 6.22827C24.7159 6.0775 25.106 5.99991 25.5 5.99991C25.894 5.99991 26.2841 6.0775 26.6481 6.22827C27.012 6.37903 27.3427 6.60001 27.6213 6.87859C27.8999 7.15716 28.1209 7.48788 28.2716 7.85186C28.4224 8.21583 28.5 8.60594 28.5 8.99991C28.5 9.79556 28.1839 10.5586 27.6213 11.1212C27.0587 11.6838 26.2956 11.9999 25.5 11.9999C24.7044 11.9999 23.9413 11.6838 23.3787 11.1212C22.8161 10.5586 22.5 9.79556 22.5 8.99991ZM25.5 7.99991C25.2348 7.99991 24.9804 8.10526 24.7929 8.2928C24.6054 8.48034 24.5 8.73469 24.5 8.99991C24.5 9.26512 24.6054 9.51948 24.7929 9.70701C24.9804 9.89455 25.2348 9.99991 25.5 9.99991C25.7652 9.99991 26.0196 9.89455 26.2071 9.70701C26.3946 9.51948 26.5 9.26512 26.5 8.99991C26.5 8.73469 26.3946 8.48034 26.2071 8.2928C26.0196 8.10526 25.7652 7.99991 25.5 7.99991ZM7.5 5.99991C6.70435 5.99991 5.94129 6.31598 5.37868 6.87859C4.81607 7.4412 4.5 8.20426 4.5 8.99991C4.5 9.79556 4.81607 10.5586 5.37868 11.1212C5.94129 11.6838 6.70435 11.9999 7.5 11.9999C8.29565 11.9999 9.05871 11.6838 9.62132 11.1212C10.1839 10.5586 10.5 9.79556 10.5 8.99991C10.5 8.20426 10.1839 7.4412 9.62132 6.87859C9.05871 6.31598 8.29565 5.99991 7.5 5.99991ZM6.5 8.99991C6.5 8.73469 6.60536 8.48034 6.79289 8.2928C6.98043 8.10526 7.23478 7.99991 7.5 7.99991C7.76522 7.99991 8.01957 8.10526 8.20711 8.2928C8.39464 8.48034 8.5 8.73469 8.5 8.99991C8.5 9.26512 8.39464 9.51948 8.20711 9.70701C8.01957 9.89455 7.76522 9.99991 7.5 9.99991C7.23478 9.99991 6.98043 9.89455 6.79289 9.70701C6.60536 9.51948 6.5 9.26512 6.5 8.99991ZM9.036 13.9999C8.68489 14.608 8.50003 15.2978 8.5 15.9999H4.5V20.9999C4.49984 21.4974 4.62339 21.9871 4.85953 22.4249C5.09568 22.8628 5.437 23.2351 5.85278 23.5082C6.26855 23.7814 6.74573 23.9468 7.24135 23.9897C7.73697 24.0326 8.23548 23.9516 8.692 23.7539C8.84 24.4159 9.072 25.0479 9.372 25.6379C8.61293 25.9444 7.79022 26.0598 6.97611 25.974C6.16201 25.8883 5.38142 25.6039 4.70288 25.146C4.02435 24.688 3.46864 24.0705 3.08455 23.3476C2.70045 22.6247 2.49973 21.8185 2.5 20.9999V15.9999C2.5 15.4695 2.71071 14.9608 3.08579 14.5857C3.46086 14.2106 3.96957 13.9999 4.5 13.9999H9.036ZM23.628 25.6379C24.3871 25.9444 25.2098 26.0598 26.0239 25.974C26.838 25.8883 27.6186 25.6039 28.2971 25.146C28.9756 24.688 29.5314 24.0705 29.9155 23.3476C30.2995 22.6247 30.5003 21.8185 30.5 20.9999V15.9999C30.5 15.4695 30.2893 14.9608 29.9142 14.5857C29.5391 14.2106 29.0304 13.9999 28.5 13.9999H23.964C24.304 14.5879 24.5 15.2699 24.5 15.9999H28.5V20.9999C28.5002 21.4974 28.3766 21.9871 28.1405 22.4249C27.9043 22.8628 27.563 23.2351 27.1472 23.5082C26.7314 23.7814 26.2543 23.9468 25.7586 23.9897C25.263 24.0326 24.7645 23.9516 24.308 23.7539C24.156 24.4179 23.9293 25.0459 23.628 25.6379ZM12.5 13.9979C11.9696 13.9979 11.4609 14.2086 11.0858 14.5837C10.7107 14.9588 10.5 15.4675 10.5 15.9979V21.9999C10.5 23.5912 11.1321 25.1173 12.2574 26.2425C13.3826 27.3678 14.9087 27.9999 16.5 27.9999C18.0913 27.9999 19.6174 27.3678 20.7426 26.2425C21.8679 25.1173 22.5 23.5912 22.5 21.9999V15.9999C22.5 15.4695 22.2893 14.9608 21.9142 14.5857C21.5391 14.2106 21.0304 13.9999 20.5 13.9999L12.5 13.9979ZM12.5 15.9979H20.5V21.9999C20.5 23.0608 20.0786 24.0782 19.3284 24.8283C18.5783 25.5785 17.5609 25.9999 16.5 25.9999C15.4391 25.9999 14.4217 25.5785 13.6716 24.8283C12.9214 24.0782 12.5 23.0608 12.5 21.9999V15.9979Z"/>
</mask>
<path d="M12.504 7.99991C12.504 6.9401 12.925 5.9237 13.6744 5.17431C14.4238 4.42491 15.4402 4.00391 16.5 4.00391C17.5598 4.00391 18.5762 4.42491 19.3256 5.17431C20.075 5.9237 20.496 6.9401 20.496 7.99991C20.496 9.05971 20.075 10.0761 19.3256 10.8255C18.5762 11.5749 17.5598 11.9959 16.5 11.9959C15.4402 11.9959 14.4238 11.5749 13.6744 10.8255C12.925 10.0761 12.504 9.05971 12.504 7.99991ZM16.5 6.00391C16.2379 6.00391 15.9783 6.05553 15.7362 6.15584C15.494 6.25615 15.274 6.40318 15.0886 6.58852C14.9033 6.77387 14.7562 6.9939 14.6559 7.23607C14.5556 7.47824 14.504 7.73779 14.504 7.99991C14.504 8.26202 14.5556 8.52158 14.6559 8.76374C14.7562 9.00591 14.9033 9.22595 15.0886 9.41129C15.274 9.59664 15.494 9.74366 15.7362 9.84397C15.9783 9.94428 16.2379 9.99591 16.5 9.99591C17.0294 9.99591 17.5371 9.78561 17.9114 9.41129C18.2857 9.03697 18.496 8.52928 18.496 7.99991C18.496 7.47053 18.2857 6.96284 17.9114 6.58852C17.5371 6.2142 17.0294 6.00391 16.5 6.00391ZM22.5 8.99991C22.5 8.60594 22.5776 8.21583 22.7284 7.85186C22.8791 7.48788 23.1001 7.15716 23.3787 6.87859C23.6573 6.60001 23.988 6.37903 24.3519 6.22827C24.7159 6.0775 25.106 5.99991 25.5 5.99991C25.894 5.99991 26.2841 6.0775 26.6481 6.22827C27.012 6.37903 27.3427 6.60001 27.6213 6.87859C27.8999 7.15716 28.1209 7.48788 28.2716 7.85186C28.4224 8.21583 28.5 8.60594 28.5 8.99991C28.5 9.79556 28.1839 10.5586 27.6213 11.1212C27.0587 11.6838 26.2956 11.9999 25.5 11.9999C24.7044 11.9999 23.9413 11.6838 23.3787 11.1212C22.8161 10.5586 22.5 9.79556 22.5 8.99991ZM25.5 7.99991C25.2348 7.99991 24.9804 8.10526 24.7929 8.2928C24.6054 8.48034 24.5 8.73469 24.5 8.99991C24.5 9.26512 24.6054 9.51948 24.7929 9.70701C24.9804 9.89455 25.2348 9.99991 25.5 9.99991C25.7652 9.99991 26.0196 9.89455 26.2071 9.70701C26.3946 9.51948 26.5 9.26512 26.5 8.99991C26.5 8.73469 26.3946 8.48034 26.2071 8.2928C26.0196 8.10526 25.7652 7.99991 25.5 7.99991ZM7.5 5.99991C6.70435 5.99991 5.94129 6.31598 5.37868 6.87859C4.81607 7.4412 4.5 8.20426 4.5 8.99991C4.5 9.79556 4.81607 10.5586 5.37868 11.1212C5.94129 11.6838 6.70435 11.9999 7.5 11.9999C8.29565 11.9999 9.05871 11.6838 9.62132 11.1212C10.1839 10.5586 10.5 9.79556 10.5 8.99991C10.5 8.20426 10.1839 7.4412 9.62132 6.87859C9.05871 6.31598 8.29565 5.99991 7.5 5.99991ZM6.5 8.99991C6.5 8.73469 6.60536 8.48034 6.79289 8.2928C6.98043 8.10526 7.23478 7.99991 7.5 7.99991C7.76522 7.99991 8.01957 8.10526 8.20711 8.2928C8.39464 8.48034 8.5 8.73469 8.5 8.99991C8.5 9.26512 8.39464 9.51948 8.20711 9.70701C8.01957 9.89455 7.76522 9.99991 7.5 9.99991C7.23478 9.99991 6.98043 9.89455 6.79289 9.70701C6.60536 9.51948 6.5 9.26512 6.5 8.99991ZM9.036 13.9999C8.68489 14.608 8.50003 15.2978 8.5 15.9999H4.5V20.9999C4.49984 21.4974 4.62339 21.9871 4.85953 22.4249C5.09568 22.8628 5.437 23.2351 5.85278 23.5082C6.26855 23.7814 6.74573 23.9468 7.24135 23.9897C7.73697 24.0326 8.23548 23.9516 8.692 23.7539C8.84 24.4159 9.072 25.0479 9.372 25.6379C8.61293 25.9444 7.79022 26.0598 6.97611 25.974C6.16201 25.8883 5.38142 25.6039 4.70288 25.146C4.02435 24.688 3.46864 24.0705 3.08455 23.3476C2.70045 22.6247 2.49973 21.8185 2.5 20.9999V15.9999C2.5 15.4695 2.71071 14.9608 3.08579 14.5857C3.46086 14.2106 3.96957 13.9999 4.5 13.9999H9.036ZM23.628 25.6379C24.3871 25.9444 25.2098 26.0598 26.0239 25.974C26.838 25.8883 27.6186 25.6039 28.2971 25.146C28.9756 24.688 29.5314 24.0705 29.9155 23.3476C30.2995 22.6247 30.5003 21.8185 30.5 20.9999V15.9999C30.5 15.4695 30.2893 14.9608 29.9142 14.5857C29.5391 14.2106 29.0304 13.9999 28.5 13.9999H23.964C24.304 14.5879 24.5 15.2699 24.5 15.9999H28.5V20.9999C28.5002 21.4974 28.3766 21.9871 28.1405 22.4249C27.9043 22.8628 27.563 23.2351 27.1472 23.5082C26.7314 23.7814 26.2543 23.9468 25.7586 23.9897C25.263 24.0326 24.7645 23.9516 24.308 23.7539C24.156 24.4179 23.9293 25.0459 23.628 25.6379ZM12.5 13.9979C11.9696 13.9979 11.4609 14.2086 11.0858 14.5837C10.7107 14.9588 10.5 15.4675 10.5 15.9979V21.9999C10.5 23.5912 11.1321 25.1173 12.2574 26.2425C13.3826 27.3678 14.9087 27.9999 16.5 27.9999C18.0913 27.9999 19.6174 27.3678 20.7426 26.2425C21.8679 25.1173 22.5 23.5912 22.5 21.9999V15.9999C22.5 15.4695 22.2893 14.9608 21.9142 14.5857C21.5391 14.2106 21.0304 13.9999 20.5 13.9999L12.5 13.9979ZM12.5 15.9979H20.5V21.9999C20.5 23.0608 20.0786 24.0782 19.3284 24.8283C18.5783 25.5785 17.5609 25.9999 16.5 25.9999C15.4391 25.9999 14.4217 25.5785 13.6716 24.8283C12.9214 24.0782 12.5 23.0608 12.5 21.9999V15.9979Z" fill="white"/>
<path d="M12.504 7.99991C12.504 6.9401 12.925 5.9237 13.6744 5.17431C14.4238 4.42491 15.4402 4.00391 16.5 4.00391C17.5598 4.00391 18.5762 4.42491 19.3256 5.17431C20.075 5.9237 20.496 6.9401 20.496 7.99991C20.496 9.05971 20.075 10.0761 19.3256 10.8255C18.5762 11.5749 17.5598 11.9959 16.5 11.9959C15.4402 11.9959 14.4238 11.5749 13.6744 10.8255C12.925 10.0761 12.504 9.05971 12.504 7.99991ZM16.5 6.00391C16.2379 6.00391 15.9783 6.05553 15.7362 6.15584C15.494 6.25615 15.274 6.40318 15.0886 6.58852C14.9033 6.77387 14.7562 6.9939 14.6559 7.23607C14.5556 7.47824 14.504 7.73779 14.504 7.99991C14.504 8.26202 14.5556 8.52158 14.6559 8.76374C14.7562 9.00591 14.9033 9.22595 15.0886 9.41129C15.274 9.59664 15.494 9.74366 15.7362 9.84397C15.9783 9.94428 16.2379 9.99591 16.5 9.99591C17.0294 9.99591 17.5371 9.78561 17.9114 9.41129C18.2857 9.03697 18.496 8.52928 18.496 7.99991C18.496 7.47053 18.2857 6.96284 17.9114 6.58852C17.5371 6.2142 17.0294 6.00391 16.5 6.00391ZM22.5 8.99991C22.5 8.60594 22.5776 8.21583 22.7284 7.85186C22.8791 7.48788 23.1001 7.15716 23.3787 6.87859C23.6573 6.60001 23.988 6.37903 24.3519 6.22827C24.7159 6.0775 25.106 5.99991 25.5 5.99991C25.894 5.99991 26.2841 6.0775 26.6481 6.22827C27.012 6.37903 27.3427 6.60001 27.6213 6.87859C27.8999 7.15716 28.1209 7.48788 28.2716 7.85186C28.4224 8.21583 28.5 8.60594 28.5 8.99991C28.5 9.79556 28.1839 10.5586 27.6213 11.1212C27.0587 11.6838 26.2956 11.9999 25.5 11.9999C24.7044 11.9999 23.9413 11.6838 23.3787 11.1212C22.8161 10.5586 22.5 9.79556 22.5 8.99991ZM25.5 7.99991C25.2348 7.99991 24.9804 8.10526 24.7929 8.2928C24.6054 8.48034 24.5 8.73469 24.5 8.99991C24.5 9.26512 24.6054 9.51948 24.7929 9.70701C24.9804 9.89455 25.2348 9.99991 25.5 9.99991C25.7652 9.99991 26.0196 9.89455 26.2071 9.70701C26.3946 9.51948 26.5 9.26512 26.5 8.99991C26.5 8.73469 26.3946 8.48034 26.2071 8.2928C26.0196 8.10526 25.7652 7.99991 25.5 7.99991ZM7.5 5.99991C6.70435 5.99991 5.94129 6.31598 5.37868 6.87859C4.81607 7.4412 4.5 8.20426 4.5 8.99991C4.5 9.79556 4.81607 10.5586 5.37868 11.1212C5.94129 11.6838 6.70435 11.9999 7.5 11.9999C8.29565 11.9999 9.05871 11.6838 9.62132 11.1212C10.1839 10.5586 10.5 9.79556 10.5 8.99991C10.5 8.20426 10.1839 7.4412 9.62132 6.87859C9.05871 6.31598 8.29565 5.99991 7.5 5.99991ZM6.5 8.99991C6.5 8.73469 6.60536 8.48034 6.79289 8.2928C6.98043 8.10526 7.23478 7.99991 7.5 7.99991C7.76522 7.99991 8.01957 8.10526 8.20711 8.2928C8.39464 8.48034 8.5 8.73469 8.5 8.99991C8.5 9.26512 8.39464 9.51948 8.20711 9.70701C8.01957 9.89455 7.76522 9.99991 7.5 9.99991C7.23478 9.99991 6.98043 9.89455 6.79289 9.70701C6.60536 9.51948 6.5 9.26512 6.5 8.99991ZM9.036 13.9999C8.68489 14.608 8.50003 15.2978 8.5 15.9999H4.5V20.9999C4.49984 21.4974 4.62339 21.9871 4.85953 22.4249C5.09568 22.8628 5.437 23.2351 5.85278 23.5082C6.26855 23.7814 6.74573 23.9468 7.24135 23.9897C7.73697 24.0326 8.23548 23.9516 8.692 23.7539C8.84 24.4159 9.072 25.0479 9.372 25.6379C8.61293 25.9444 7.79022 26.0598 6.97611 25.974C6.16201 25.8883 5.38142 25.6039 4.70288 25.146C4.02435 24.688 3.46864 24.0705 3.08455 23.3476C2.70045 22.6247 2.49973 21.8185 2.5 20.9999V15.9999C2.5 15.4695 2.71071 14.9608 3.08579 14.5857C3.46086 14.2106 3.96957 13.9999 4.5 13.9999H9.036ZM23.628 25.6379C24.3871 25.9444 25.2098 26.0598 26.0239 25.974C26.838 25.8883 27.6186 25.6039 28.2971 25.146C28.9756 24.688 29.5314 24.0705 29.9155 23.3476C30.2995 22.6247 30.5003 21.8185 30.5 20.9999V15.9999C30.5 15.4695 30.2893 14.9608 29.9142 14.5857C29.5391 14.2106 29.0304 13.9999 28.5 13.9999H23.964C24.304 14.5879 24.5 15.2699 24.5 15.9999H28.5V20.9999C28.5002 21.4974 28.3766 21.9871 28.1405 22.4249C27.9043 22.8628 27.563 23.2351 27.1472 23.5082C26.7314 23.7814 26.2543 23.9468 25.7586 23.9897C25.263 24.0326 24.7645 23.9516 24.308 23.7539C24.156 24.4179 23.9293 25.0459 23.628 25.6379ZM12.5 13.9979C11.9696 13.9979 11.4609 14.2086 11.0858 14.5837C10.7107 14.9588 10.5 15.4675 10.5 15.9979V21.9999C10.5 23.5912 11.1321 25.1173 12.2574 26.2425C13.3826 27.3678 14.9087 27.9999 16.5 27.9999C18.0913 27.9999 19.6174 27.3678 20.7426 26.2425C21.8679 25.1173 22.5 23.5912 22.5 21.9999V15.9999C22.5 15.4695 22.2893 14.9608 21.9142 14.5857C21.5391 14.2106 21.0304 13.9999 20.5 13.9999L12.5 13.9979ZM12.5 15.9979H20.5V21.9999C20.5 23.0608 20.0786 24.0782 19.3284 24.8283C18.5783 25.5785 17.5609 25.9999 16.5 25.9999C15.4391 25.9999 14.4217 25.5785 13.6716 24.8283C12.9214 24.0782 12.5 23.0608 12.5 21.9999V15.9979Z" stroke="white" stroke-width="0.4" mask="url(#path-1-outside-1_16_474)"/>
</svg>
