<svg width="33" height="32" viewBox="0 0 33 32" fill="none" xmlns="http://www.w3.org/2000/svg">
<path d="M9.30005 15.8976C16.064 3.29222 24.4867 3.14689 27.8507 4.64955C29.3534 8.01489 29.208 16.4362 16.6027 23.2002C16.472 22.4482 15.7454 20.4802 13.8827 18.6176C12.02 16.7549 10.052 16.0282 9.30005 15.8976Z" stroke="white" stroke-width="2" stroke-linecap="round" stroke-linejoin="round"/>
<path d="M18.3 22.6001C20.752 23.8001 21.0133 25.9521 21.3533 28.0001C21.3533 28.0001 26.4867 24.2054 23.2027 19.0001M9.9 14.3028C8.7 11.8508 6.548 11.5894 4.5 11.2494C4.5 11.2494 8.296 6.11611 13.5 9.40011M8.524 19.8828C7.84133 20.5641 6.68133 22.5441 7.5 25.0001C9.95733 25.8188 11.936 24.6588 12.62 23.9774M23.5667 11.2668C23.5667 10.6479 23.3208 10.0544 22.8833 9.61686C22.4457 9.17927 21.8522 8.93344 21.2333 8.93344C20.6145 8.93344 20.021 9.17927 19.5834 9.61686C19.1458 10.0544 18.9 10.6479 18.9 11.2668C18.9 11.8856 19.1458 12.4791 19.5834 12.9167C20.021 13.3543 20.6145 13.6001 21.2333 13.6001C21.8522 13.6001 22.4457 13.3543 22.8833 12.9167C23.3208 12.4791 23.5667 11.8856 23.5667 11.2668Z" stroke="white" stroke-width="2" stroke-linecap="round" stroke-linejoin="round"/>
</svg>
