<svg width="33" height="32" viewBox="0 0 33 32" fill="none" xmlns="http://www.w3.org/2000/svg">
<path d="M24.167 28.2132L20.5003 24.2132L22.047 22.6665L24.167 24.7865L28.9537 19.9998L30.5003 21.8798L24.167 28.2132ZM17.8337 24.2798C17.167 24.9332 16.207 25.3332 15.167 25.3332C12.967 25.3332 11.167 23.5332 11.167 21.3332V17.3332H19.167V19.5865C19.8337 18.5598 20.767 17.6932 21.8337 17.0798V14.6665H8.50033V21.3332C8.50033 23.5198 9.58033 25.4532 11.207 26.6665H5.83366V5.33317H8.50033V7.99984C8.50033 8.73317 9.10033 9.33317 9.83366 9.33317H20.5003C21.2337 9.33317 21.8337 8.73317 21.8337 7.99984V5.33317H24.5003V2.6665H5.83366C4.36699 2.6665 3.16699 3.8665 3.16699 5.33317V26.6665C3.16699 28.1332 4.36699 29.3332 5.83366 29.3332H19.887C18.6737 27.9998 17.9137 26.2265 17.8337 24.2798ZM13.8337 11.9998C13.8337 12.7332 14.4337 13.3332 15.167 13.3332C15.9003 13.3332 16.5003 12.7332 16.5003 11.9998C16.5003 11.2665 15.9003 10.6665 15.167 10.6665C14.4337 10.6665 13.8337 11.2665 13.8337 11.9998Z" fill="white"/>
</svg>
